# xmcd
#
# Track frame offsets: 
#        150
#        26461
#        40482
#        52641
#        66175
#        80057
#        108579
#        120981
#        144582
#        158835
#        175996
#        195887
#        220754
#        230204
#        256173
#        279026
#
# Disc length: 3990 seconds
#
# Revision: 1
# Processed by: cddbd v1.5.2PL0 Copyright (c) Steve Scherf et al.
# Submitted via: ExactAudioCopy v0.95b3
#
DISCID=d40f9410
DTITLE=Various Artist - Blues Power CD1
DYEAR=2005
DGENRE=Blues
TTITLE0=Santana/Blues Latino
TTITLE1=John Mayall and The Bluebreakers/Ramblin' On My Mind
TTITLE2=Muddy Waters/Blues Before Sunrise
TTITLE3=John Lee Hooker/One Bourbon, One Scotch, One Beer
TTITLE4=Howlin Wolf/Smokestack Lightnin'
TTITLE5=Luther Allison/Luther's Blues
TTITLE6=Bo Diddley/Pretty Thing
TTITLE7=Lucky Peterson/When My Blood Runs Cold
TTITLE8=Steve Earle/Continental Trailways Blues
TTITLE9=The Spencer Davis Group/Stevie's Blues
TTITLE10=The Robert Cray Band/Consequences
TTITLE11=Robben Ford/Nothing To Nobody
TTITLE12=Chuck Berry/Still Got The Blues
TTITLE13=The Allmann Brothers Band/Jelly Jelly
TTITLE14=Jimmy Smith/Strut
TTITLE15=Harvey Mason,  Bob James, Lee Ritenour/West Coast Blues
EXTD=
EXTT0=
EXTT1=
EXTT2=
EXTT3=
EXTT4=
EXTT5=
EXTT6=
EXTT7=
EXTT8=
EXTT9=
EXTT10=
EXTT11=
EXTT12=
EXTT13=
EXTT14=
EXTT15=
PLAYORDER=
